<?xml version="1.0" encoding="utf-8"?>

<svg xmlns="http://www.w3.org/2000/svg" width="192" height="192" viewBox="0 0 192 192" fill="none">
  <path d="M0 0h192v192H0z" fill="transparent"/>
  <path d="M65.417 63.247h-.512l-.323-.33.252.099.173-.04c-.098.004-33.414-31.814-33.414-31.814h63.814V31c35.9 0 65 29.101 65 65s-29.1 65-65 65v-.735l-30.68-31.213c-1.723-1.43-9.063-8.893-16.258-16.173-8.185-8.29-16.325-16.612-16.325-16.612v-33.02h32.761l30.502 30.991v3.086c-8.395-.277-30.833-1.134-30.833-1.134-.189-.181.448 29.206.526 32.749h30.307v-.435c17.949 0 32.5-14.548 32.5-32.5s-14.551-32.5-32.5-32.5v-.475H64.865zm33.11 34.162c0 .013-1.19-.021-3.12-.088v-3.085z" 
        fill="transparent" stroke="#1919e6" stroke-width="3"/>
</svg>