<?xml version="1.0" encoding="utf-8"?>

<svg xmlns="http://www.w3.org/2000/svg" width="192" height="192" fill="none" viewBox="66 66 52 52"><path d="M66 66h50v50H66z" fill="transparent"/><path d="M80.23 79.274h-.185l-.117-.119.091.036.062-.014c-.035.001-12.08-11.502-12.08-11.502h23.071v-.059c12.979 0 23.5 10.521 23.5 23.5s-10.521 23.5-23.5 23.5v-.266l-11.091-11.284c-.624-.518-3.277-3.216-5.879-5.848-2.959-2.997-5.902-6.006-5.902-6.006V79.274h11.845l11.027 11.205v1.116c-3.035-.101-11.147-.41-11.147-.41-.068-.066.162 10.558.19 11.84h10.957v-.158c6.49 0 11.75-5.26 11.75-11.75s-5.26-11.75-11.75-11.75v-.171H80.03ZM92.2 91.625c0 .005-.43-.007-1.128-.031v-1.116Z" fill="%231919e6" stroke="%231919e6"/>
</svg>