<?xml version="1.0" encoding="utf-8"?>

<svg xmlns="http://www.w3.org/2000/svg" width="512" height="512" viewBox="0 0 192 192" fill="none">
  <rect width="192" height="192" fill="#1919e6"/>
  <path d="M85.076 84.415h-.182l-.114-.118.09.035.057-.017C84.894 84.315 73 73.054 73 73.054h22.789V73C108.607 73 119 83.3 119 96c0 12.702-10.393 23-23.211 23v-.261l-11.091-11.284c-.624-.518-3.277-3.216-5.879-5.848-2.959-2.997-5.902-6.006-5.902-6.006V84.415h11.845l11.027 11.205v1.116c-3.035-.101-11.147-.41-11.147-.41-.068-.066.162 10.558.19 11.84h10.957v-.158c6.49 0 11.75-5.26 11.75-11.75s-5.26-11.75-11.75-11.75v-.171H84.878zm11.828 12.082c0 .01-.427-.008-1.115-.026v-1.096z" fill="#1919e6" stroke="#fff" stroke-width="3"/>
</svg>